<mxfile host="65bd71144e">
    <diagram id="qImvKCIxQ8b9vkjv8AlC" name="main">
        <mxGraphModel dx="535" dy="475" grid="1" gridSize="10" guides="1" tooltips="1" connect="1" arrows="1" fold="1" page="1" pageScale="1" pageWidth="827" pageHeight="1169" background="#ffffff" math="0" shadow="0">
            <root>
                <mxCell id="0"/>
                <mxCell id="1" parent="0"/>
                <mxCell id="4" value="" style="edgeStyle=none;html=1;fontFamily=Times New Roman;fontSize=14;fontColor=#000000;strokeColor=#000000;strokeWidth=3;" edge="1" parent="1" source="2" target="3">
                    <mxGeometry relative="1" as="geometry"/>
                </mxCell>
                <mxCell id="2" value="&lt;font style=&quot;font-size: 14px;&quot; face=&quot;Times New Roman&quot;&gt;&lt;font color=&quot;#000000&quot;&gt;Начало&lt;/font&gt;&lt;/font&gt;" style="ellipse;whiteSpace=wrap;html=1;fillColor=#FFFFFF;strokeColor=#000000;" vertex="1" parent="1">
                    <mxGeometry x="200" width="120" height="80" as="geometry"/>
                </mxCell>
                <mxCell id="6" value="" style="edgeStyle=none;html=1;strokeColor=#000000;strokeWidth=3;fontFamily=Times New Roman;fontSize=14;fontColor=#000000;" edge="1" parent="1" source="3" target="5">
                    <mxGeometry relative="1" as="geometry"/>
                </mxCell>
                <mxCell id="3" value="n = check_number_int()" style="shape=process;whiteSpace=wrap;html=1;backgroundOutline=1;strokeColor=#000000;fontFamily=Times New Roman;fontSize=14;fontColor=#000000;fillColor=#FFFFFF;" vertex="1" parent="1">
                    <mxGeometry x="170" y="100" width="180" height="60" as="geometry"/>
                </mxCell>
                <mxCell id="8" value="" style="edgeStyle=none;html=1;strokeColor=#000000;strokeWidth=3;fontFamily=Times New Roman;fontSize=14;fontColor=#000000;" edge="1" parent="1" source="5" target="7">
                    <mxGeometry relative="1" as="geometry"/>
                </mxCell>
                <mxCell id="5" value="check_pozitive_int(n)" style="shape=process;whiteSpace=wrap;html=1;backgroundOutline=1;strokeColor=#000000;fontFamily=Times New Roman;fontSize=14;fontColor=#000000;fillColor=#FFFFFF;" vertex="1" parent="1">
                    <mxGeometry x="180" y="190" width="160" height="60" as="geometry"/>
                </mxCell>
                <mxCell id="10" value="" style="edgeStyle=none;html=1;strokeColor=#000000;strokeWidth=3;fontFamily=Times New Roman;fontSize=14;fontColor=#000000;" edge="1" parent="1" source="7" target="9">
                    <mxGeometry relative="1" as="geometry"/>
                </mxCell>
                <mxCell id="7" value="e = check_number_float()" style="shape=process;whiteSpace=wrap;html=1;backgroundOutline=1;strokeColor=#000000;fontFamily=Times New Roman;fontSize=14;fontColor=#000000;fillColor=#FFFFFF;" vertex="1" parent="1">
                    <mxGeometry x="165" y="280" width="190" height="60" as="geometry"/>
                </mxCell>
                <mxCell id="12" value="" style="edgeStyle=none;html=1;strokeColor=#000000;strokeWidth=3;fontFamily=Times New Roman;fontSize=14;fontColor=#000000;" edge="1" parent="1" source="9" target="11">
                    <mxGeometry relative="1" as="geometry"/>
                </mxCell>
                <mxCell id="9" value="check_pozitive_float(e)" style="shape=process;whiteSpace=wrap;html=1;backgroundOutline=1;strokeColor=#000000;fontFamily=Times New Roman;fontSize=14;fontColor=#000000;fillColor=#FFFFFF;" vertex="1" parent="1">
                    <mxGeometry x="175" y="370" width="170" height="60" as="geometry"/>
                </mxCell>
                <mxCell id="14" value="" style="edgeStyle=none;html=1;strokeColor=#000000;strokeWidth=3;fontFamily=Times New Roman;fontSize=14;fontColor=#000000;" edge="1" parent="1" source="11" target="13">
                    <mxGeometry relative="1" as="geometry"/>
                </mxCell>
                <mxCell id="11" value="sum_of_sequence(n)" style="shape=parallelogram;perimeter=parallelogramPerimeter;whiteSpace=wrap;html=1;fixedSize=1;strokeColor=#000000;fontFamily=Times New Roman;fontSize=14;fontColor=#000000;fillColor=#FFFFFF;" vertex="1" parent="1">
                    <mxGeometry x="185" y="460" width="150" height="60" as="geometry"/>
                </mxCell>
                <mxCell id="16" value="" style="edgeStyle=none;html=1;strokeColor=#000000;strokeWidth=3;fontFamily=Times New Roman;fontSize=14;fontColor=#000000;" edge="1" parent="1" source="13" target="15">
                    <mxGeometry relative="1" as="geometry"/>
                </mxCell>
                <mxCell id="13" value="verified_sum_of_series(e)" style="shape=parallelogram;perimeter=parallelogramPerimeter;whiteSpace=wrap;html=1;fixedSize=1;strokeColor=#000000;fontFamily=Times New Roman;fontSize=14;fontColor=#000000;fillColor=#FFFFFF;" vertex="1" parent="1">
                    <mxGeometry x="170" y="555" width="180" height="60" as="geometry"/>
                </mxCell>
                <mxCell id="15" value="0" style="ellipse;whiteSpace=wrap;html=1;strokeColor=#000000;fontFamily=Times New Roman;fontSize=14;fontColor=#000000;fillColor=#FFFFFF;" vertex="1" parent="1">
                    <mxGeometry x="200" y="640" width="120" height="80" as="geometry"/>
                </mxCell>
            </root>
        </mxGraphModel>
    </diagram>
    <diagram id="YGD15nh5n2rkXE47vT4t" name="check_number_int">
        <mxGraphModel dx="535" dy="475" grid="1" gridSize="10" guides="1" tooltips="1" connect="1" arrows="1" fold="1" page="1" pageScale="1" pageWidth="827" pageHeight="1169" background="#ffffff" math="0" shadow="0">
            <root>
                <mxCell id="0"/>
                <mxCell id="1" parent="0"/>
                <mxCell id="fXSnB286x7akCySVR6Xr-2" value="" style="edgeStyle=none;html=1;strokeColor=#000000;strokeWidth=3;fontFamily=Times New Roman;fontSize=14;fontColor=#000000;" edge="1" parent="1" source="fXSnB286x7akCySVR6Xr-3" target="fXSnB286x7akCySVR6Xr-5">
                    <mxGeometry relative="1" as="geometry"/>
                </mxCell>
                <mxCell id="fXSnB286x7akCySVR6Xr-3" value="Начало" style="ellipse;whiteSpace=wrap;html=1;strokeColor=#000000;fontFamily=Times New Roman;fontSize=14;fontColor=#000000;fillColor=#FFFFFF;" vertex="1" parent="1">
                    <mxGeometry x="200" width="120" height="80" as="geometry"/>
                </mxCell>
                <mxCell id="fXSnB286x7akCySVR6Xr-4" value="" style="edgeStyle=none;html=1;strokeColor=#000000;strokeWidth=3;fontFamily=Times New Roman;fontSize=14;fontColor=#000000;" edge="1" parent="1" source="fXSnB286x7akCySVR6Xr-5" target="fXSnB286x7akCySVR6Xr-6">
                    <mxGeometry relative="1" as="geometry"/>
                </mxCell>
                <mxCell id="fXSnB286x7akCySVR6Xr-5" value="x = 0" style="shape=process;whiteSpace=wrap;html=1;backgroundOutline=1;strokeColor=#000000;fontFamily=Times New Roman;fontSize=14;fontColor=#000000;fillColor=#FFFFFF;" vertex="1" parent="1">
                    <mxGeometry x="200" y="110" width="120" height="60" as="geometry"/>
                </mxCell>
                <mxCell id="fXSnB286x7akCySVR6Xr-6" value="scanf(&quot;%d&quot;, &amp;amp;x) != 1" style="rhombus;whiteSpace=wrap;html=1;strokeColor=#000000;fontFamily=Times New Roman;fontSize=14;fontColor=#000000;fillColor=#FFFFFF;" vertex="1" parent="1">
                    <mxGeometry x="165" y="200" width="190" height="80" as="geometry"/>
                </mxCell>
                <mxCell id="fXSnB286x7akCySVR6Xr-7" value="" style="endArrow=classic;html=1;strokeColor=#000000;strokeWidth=3;fontFamily=Times New Roman;fontSize=14;fontColor=#000000;exitX=0.5;exitY=1;exitDx=0;exitDy=0;" edge="1" parent="1" source="fXSnB286x7akCySVR6Xr-6">
                    <mxGeometry width="50" height="50" relative="1" as="geometry">
                        <mxPoint x="230" y="350" as="sourcePoint"/>
                        <mxPoint x="260" y="330" as="targetPoint"/>
                    </mxGeometry>
                </mxCell>
                <mxCell id="fXSnB286x7akCySVR6Xr-8" value="" style="edgeStyle=none;html=1;strokeColor=#000000;strokeWidth=3;fontFamily=Times New Roman;fontSize=14;fontColor=#000000;" edge="1" parent="1" source="fXSnB286x7akCySVR6Xr-9" target="fXSnB286x7akCySVR6Xr-10">
                    <mxGeometry relative="1" as="geometry"/>
                </mxCell>
                <mxCell id="fXSnB286x7akCySVR6Xr-9" value="&quot;Insert a valid value!&quot;" style="shape=parallelogram;perimeter=parallelogramPerimeter;whiteSpace=wrap;html=1;fixedSize=1;strokeColor=#000000;fontFamily=Times New Roman;fontSize=14;fontColor=#000000;fillColor=#FFFFFF;" vertex="1" parent="1">
                    <mxGeometry x="180" y="330" width="160" height="60" as="geometry"/>
                </mxCell>
                <mxCell id="fXSnB286x7akCySVR6Xr-10" value="abort()" style="ellipse;whiteSpace=wrap;html=1;strokeColor=#000000;fontFamily=Times New Roman;fontSize=14;fontColor=#000000;fillColor=#FFFFFF;" vertex="1" parent="1">
                    <mxGeometry x="200" y="410" width="120" height="80" as="geometry"/>
                </mxCell>
                <mxCell id="fXSnB286x7akCySVR6Xr-11" value="true" style="text;html=1;align=center;verticalAlign=middle;resizable=0;points=[];autosize=1;strokeColor=none;fillColor=none;fontSize=14;fontFamily=Times New Roman;fontColor=#000000;" vertex="1" parent="1">
                    <mxGeometry x="215" y="285" width="50" height="30" as="geometry"/>
                </mxCell>
                <mxCell id="fXSnB286x7akCySVR6Xr-12" value="" style="endArrow=none;html=1;strokeColor=#000000;strokeWidth=3;fontFamily=Times New Roman;fontSize=14;fontColor=#000000;exitX=0;exitY=0.5;exitDx=0;exitDy=0;" edge="1" parent="1" source="fXSnB286x7akCySVR6Xr-6">
                    <mxGeometry width="50" height="50" relative="1" as="geometry">
                        <mxPoint x="230" y="340" as="sourcePoint"/>
                        <mxPoint x="80" y="240" as="targetPoint"/>
                    </mxGeometry>
                </mxCell>
                <mxCell id="fXSnB286x7akCySVR6Xr-13" value="" style="endArrow=classic;html=1;strokeColor=#000000;strokeWidth=3;fontFamily=Times New Roman;fontSize=14;fontColor=#000000;" edge="1" parent="1">
                    <mxGeometry width="50" height="50" relative="1" as="geometry">
                        <mxPoint x="80" y="240" as="sourcePoint"/>
                        <mxPoint x="80" y="310" as="targetPoint"/>
                    </mxGeometry>
                </mxCell>
                <mxCell id="fXSnB286x7akCySVR6Xr-14" value="false" style="text;html=1;align=center;verticalAlign=middle;resizable=0;points=[];autosize=1;strokeColor=none;fillColor=none;fontSize=14;fontFamily=Times New Roman;fontColor=#000000;" vertex="1" parent="1">
                    <mxGeometry x="95" y="205" width="50" height="30" as="geometry"/>
                </mxCell>
                <mxCell id="fXSnB286x7akCySVR6Xr-15" value="x" style="ellipse;whiteSpace=wrap;html=1;strokeColor=#000000;fontFamily=Times New Roman;fontSize=14;fontColor=#000000;fillColor=#FFFFFF;" vertex="1" parent="1">
                    <mxGeometry x="20" y="310" width="120" height="80" as="geometry"/>
                </mxCell>
            </root>
        </mxGraphModel>
    </diagram>
    <diagram id="sO5p8uSBzqOF-rfWSGTu" name="check_number_float">
        <mxGraphModel dx="1659" dy="475" grid="1" gridSize="10" guides="1" tooltips="1" connect="1" arrows="1" fold="1" page="1" pageScale="1" pageWidth="827" pageHeight="1169" background="#ffffff" math="0" shadow="0">
            <root>
                <mxCell id="0"/>
                <mxCell id="1" parent="0"/>
                <mxCell id="Ok_35fRgoBMUSIsmBXo3-15" value="" style="edgeStyle=none;html=1;strokeColor=#000000;strokeWidth=3;fontFamily=Times New Roman;fontSize=14;fontColor=#000000;" edge="1" parent="1" source="Ok_35fRgoBMUSIsmBXo3-16" target="Ok_35fRgoBMUSIsmBXo3-18">
                    <mxGeometry relative="1" as="geometry"/>
                </mxCell>
                <mxCell id="Ok_35fRgoBMUSIsmBXo3-16" value="Начало" style="ellipse;whiteSpace=wrap;html=1;strokeColor=#000000;fontFamily=Times New Roman;fontSize=14;fontColor=#000000;fillColor=#FFFFFF;" vertex="1" parent="1">
                    <mxGeometry x="350" width="120" height="80" as="geometry"/>
                </mxCell>
                <mxCell id="Ok_35fRgoBMUSIsmBXo3-17" value="" style="edgeStyle=none;html=1;strokeColor=#000000;strokeWidth=3;fontFamily=Times New Roman;fontSize=14;fontColor=#000000;" edge="1" parent="1" source="Ok_35fRgoBMUSIsmBXo3-18" target="Ok_35fRgoBMUSIsmBXo3-19">
                    <mxGeometry relative="1" as="geometry"/>
                </mxCell>
                <mxCell id="Ok_35fRgoBMUSIsmBXo3-18" value="x = 0" style="shape=process;whiteSpace=wrap;html=1;backgroundOutline=1;strokeColor=#000000;fontFamily=Times New Roman;fontSize=14;fontColor=#000000;fillColor=#FFFFFF;" vertex="1" parent="1">
                    <mxGeometry x="350" y="110" width="120" height="60" as="geometry"/>
                </mxCell>
                <mxCell id="Ok_35fRgoBMUSIsmBXo3-19" value="scanf(&quot;%lf&quot;, &amp;amp;x) != 1" style="rhombus;whiteSpace=wrap;html=1;strokeColor=#000000;fontFamily=Times New Roman;fontSize=14;fontColor=#000000;fillColor=#FFFFFF;" vertex="1" parent="1">
                    <mxGeometry x="315" y="200" width="190" height="80" as="geometry"/>
                </mxCell>
                <mxCell id="Ok_35fRgoBMUSIsmBXo3-20" value="" style="endArrow=classic;html=1;strokeColor=#000000;strokeWidth=3;fontFamily=Times New Roman;fontSize=14;fontColor=#000000;exitX=0.5;exitY=1;exitDx=0;exitDy=0;" edge="1" parent="1" source="Ok_35fRgoBMUSIsmBXo3-19">
                    <mxGeometry width="50" height="50" relative="1" as="geometry">
                        <mxPoint x="380" y="350" as="sourcePoint"/>
                        <mxPoint x="410" y="330" as="targetPoint"/>
                    </mxGeometry>
                </mxCell>
                <mxCell id="Ok_35fRgoBMUSIsmBXo3-21" value="" style="edgeStyle=none;html=1;strokeColor=#000000;strokeWidth=3;fontFamily=Times New Roman;fontSize=14;fontColor=#000000;" edge="1" parent="1" source="Ok_35fRgoBMUSIsmBXo3-22" target="Ok_35fRgoBMUSIsmBXo3-23">
                    <mxGeometry relative="1" as="geometry"/>
                </mxCell>
                <mxCell id="Ok_35fRgoBMUSIsmBXo3-22" value="&quot;Insert a valid value!&quot;" style="shape=parallelogram;perimeter=parallelogramPerimeter;whiteSpace=wrap;html=1;fixedSize=1;strokeColor=#000000;fontFamily=Times New Roman;fontSize=14;fontColor=#000000;fillColor=#FFFFFF;" vertex="1" parent="1">
                    <mxGeometry x="330" y="330" width="160" height="60" as="geometry"/>
                </mxCell>
                <mxCell id="Ok_35fRgoBMUSIsmBXo3-23" value="abort()" style="ellipse;whiteSpace=wrap;html=1;strokeColor=#000000;fontFamily=Times New Roman;fontSize=14;fontColor=#000000;fillColor=#FFFFFF;" vertex="1" parent="1">
                    <mxGeometry x="350" y="410" width="120" height="80" as="geometry"/>
                </mxCell>
                <mxCell id="Ok_35fRgoBMUSIsmBXo3-24" value="true" style="text;html=1;align=center;verticalAlign=middle;resizable=0;points=[];autosize=1;strokeColor=none;fillColor=none;fontSize=14;fontFamily=Times New Roman;fontColor=#000000;" vertex="1" parent="1">
                    <mxGeometry x="365" y="285" width="50" height="30" as="geometry"/>
                </mxCell>
                <mxCell id="Ok_35fRgoBMUSIsmBXo3-25" value="" style="endArrow=none;html=1;strokeColor=#000000;strokeWidth=3;fontFamily=Times New Roman;fontSize=14;fontColor=#000000;exitX=0;exitY=0.5;exitDx=0;exitDy=0;" edge="1" parent="1" source="Ok_35fRgoBMUSIsmBXo3-19">
                    <mxGeometry width="50" height="50" relative="1" as="geometry">
                        <mxPoint x="380" y="340" as="sourcePoint"/>
                        <mxPoint y="240" as="targetPoint"/>
                    </mxGeometry>
                </mxCell>
                <mxCell id="Ok_35fRgoBMUSIsmBXo3-27" value="false" style="text;html=1;align=center;verticalAlign=middle;resizable=0;points=[];autosize=1;strokeColor=none;fillColor=none;fontSize=14;fontFamily=Times New Roman;fontColor=#000000;" vertex="1" parent="1">
                    <mxGeometry x="245" y="205" width="50" height="30" as="geometry"/>
                </mxCell>
                <mxCell id="Ok_35fRgoBMUSIsmBXo3-28" value="x" style="ellipse;whiteSpace=wrap;html=1;strokeColor=#000000;fontFamily=Times New Roman;fontSize=14;fontColor=#000000;fillColor=#FFFFFF;" vertex="1" parent="1">
                    <mxGeometry x="-430" y="425" width="120" height="80" as="geometry"/>
                </mxCell>
                <mxCell id="Ok_35fRgoBMUSIsmBXo3-29" value="x &amp;lt; DBL_EPSILON &amp;amp;&amp;amp; x - fabs((pow(1+2, 3) / pow(1+1, 4))) &amp;gt; -DBL_EPSILON)" style="rhombus;whiteSpace=wrap;html=1;strokeColor=#000000;fontFamily=Times New Roman;fontSize=14;fontColor=#000000;fillColor=#FFFFFF;" vertex="1" parent="1">
                    <mxGeometry x="-280" y="315" width="560" height="80" as="geometry"/>
                </mxCell>
                <mxCell id="Ok_35fRgoBMUSIsmBXo3-30" value="" style="endArrow=classic;html=1;strokeColor=#000000;strokeWidth=3;fontFamily=Times New Roman;fontSize=14;fontColor=#000000;entryX=0.5;entryY=0;entryDx=0;entryDy=0;" edge="1" parent="1" target="Ok_35fRgoBMUSIsmBXo3-29">
                    <mxGeometry width="50" height="50" relative="1" as="geometry">
                        <mxPoint y="240" as="sourcePoint"/>
                        <mxPoint x="50" y="270" as="targetPoint"/>
                    </mxGeometry>
                </mxCell>
                <mxCell id="Ok_35fRgoBMUSIsmBXo3-31" value="" style="endArrow=classic;html=1;strokeColor=#000000;strokeWidth=3;fontFamily=Times New Roman;fontSize=14;fontColor=#000000;exitX=0.5;exitY=1;exitDx=0;exitDy=0;" edge="1" parent="1" source="Ok_35fRgoBMUSIsmBXo3-29">
                    <mxGeometry width="50" height="50" relative="1" as="geometry">
                        <mxPoint x="-70" y="440" as="sourcePoint"/>
                        <mxPoint y="480" as="targetPoint"/>
                    </mxGeometry>
                </mxCell>
                <mxCell id="Ok_35fRgoBMUSIsmBXo3-32" value="true" style="text;html=1;align=center;verticalAlign=middle;resizable=0;points=[];autosize=1;strokeColor=none;fillColor=none;fontSize=14;fontFamily=Times New Roman;fontColor=#000000;" vertex="1" parent="1">
                    <mxGeometry x="-65" y="425" width="50" height="30" as="geometry"/>
                </mxCell>
                <mxCell id="Ok_35fRgoBMUSIsmBXo3-33" value="" style="endArrow=none;html=1;strokeColor=#000000;strokeWidth=3;fontFamily=Times New Roman;fontSize=14;fontColor=#000000;entryX=0;entryY=0.5;entryDx=0;entryDy=0;" edge="1" parent="1" target="Ok_35fRgoBMUSIsmBXo3-29">
                    <mxGeometry width="50" height="50" relative="1" as="geometry">
                        <mxPoint x="-370" y="355" as="sourcePoint"/>
                        <mxPoint x="-320" y="390" as="targetPoint"/>
                    </mxGeometry>
                </mxCell>
                <mxCell id="Ok_35fRgoBMUSIsmBXo3-34" value="" style="endArrow=classic;html=1;strokeColor=#000000;strokeWidth=3;fontFamily=Times New Roman;fontSize=14;fontColor=#000000;" edge="1" parent="1">
                    <mxGeometry width="50" height="50" relative="1" as="geometry">
                        <mxPoint x="-370" y="355" as="sourcePoint"/>
                        <mxPoint x="-370" y="425" as="targetPoint"/>
                        <Array as="points">
                            <mxPoint x="-370" y="385"/>
                        </Array>
                    </mxGeometry>
                </mxCell>
                <mxCell id="Ok_35fRgoBMUSIsmBXo3-35" value="false" style="text;html=1;align=center;verticalAlign=middle;resizable=0;points=[];autosize=1;strokeColor=none;fillColor=none;fontSize=14;fontFamily=Times New Roman;fontColor=#000000;" vertex="1" parent="1">
                    <mxGeometry x="-360" y="330" width="50" height="30" as="geometry"/>
                </mxCell>
                <mxCell id="Ok_35fRgoBMUSIsmBXo3-38" value="" style="edgeStyle=none;html=1;strokeColor=#000000;strokeWidth=3;fontFamily=Times New Roman;fontSize=14;fontColor=#000000;" edge="1" parent="1" source="Ok_35fRgoBMUSIsmBXo3-36" target="Ok_35fRgoBMUSIsmBXo3-37">
                    <mxGeometry relative="1" as="geometry"/>
                </mxCell>
                <mxCell id="Ok_35fRgoBMUSIsmBXo3-36" value="&quot;Please, insert another value&quot;" style="shape=parallelogram;perimeter=parallelogramPerimeter;whiteSpace=wrap;html=1;fixedSize=1;strokeColor=#000000;fontFamily=Times New Roman;fontSize=14;fontColor=#000000;fillColor=#FFFFFF;" vertex="1" parent="1">
                    <mxGeometry x="-105" y="480" width="210" height="60" as="geometry"/>
                </mxCell>
                <mxCell id="Ok_35fRgoBMUSIsmBXo3-37" value="abort()" style="ellipse;whiteSpace=wrap;html=1;strokeColor=#000000;fontFamily=Times New Roman;fontSize=14;fontColor=#000000;fillColor=#FFFFFF;" vertex="1" parent="1">
                    <mxGeometry x="-60" y="585" width="120" height="80" as="geometry"/>
                </mxCell>
            </root>
        </mxGraphModel>
    </diagram>
    <diagram id="GszuIXUO8nQwW0qHc2HE" name="check_pozitive_int">
        <mxGraphModel dx="832" dy="475" grid="1" gridSize="10" guides="1" tooltips="1" connect="1" arrows="1" fold="1" page="1" pageScale="1" pageWidth="827" pageHeight="1169" background="#ffffff" math="0" shadow="0">
            <root>
                <mxCell id="0"/>
                <mxCell id="1" parent="0"/>
                <mxCell id="Fh2YJnOW9jZOdRSf_4ld-3" value="" style="edgeStyle=none;html=1;strokeColor=#000000;strokeWidth=3;fontFamily=Times New Roman;fontSize=14;fontColor=#000000;" edge="1" parent="1" source="Fh2YJnOW9jZOdRSf_4ld-1" target="Fh2YJnOW9jZOdRSf_4ld-2">
                    <mxGeometry relative="1" as="geometry"/>
                </mxCell>
                <mxCell id="Fh2YJnOW9jZOdRSf_4ld-1" value="number" style="ellipse;whiteSpace=wrap;html=1;strokeColor=#000000;fontFamily=Times New Roman;fontSize=14;fontColor=#000000;fillColor=#FFFFFF;" vertex="1" parent="1">
                    <mxGeometry x="320" width="120" height="80" as="geometry"/>
                </mxCell>
                <mxCell id="Fh2YJnOW9jZOdRSf_4ld-2" value="number &amp;lt; 0" style="rhombus;whiteSpace=wrap;html=1;strokeColor=#000000;fontFamily=Times New Roman;fontSize=14;fontColor=#000000;fillColor=#FFFFFF;" vertex="1" parent="1">
                    <mxGeometry x="340" y="110" width="80" height="80" as="geometry"/>
                </mxCell>
                <mxCell id="Fh2YJnOW9jZOdRSf_4ld-4" value="" style="endArrow=classic;html=1;strokeColor=#000000;strokeWidth=3;fontFamily=Times New Roman;fontSize=14;fontColor=#000000;exitX=0.5;exitY=1;exitDx=0;exitDy=0;" edge="1" parent="1" source="Fh2YJnOW9jZOdRSf_4ld-2">
                    <mxGeometry width="50" height="50" relative="1" as="geometry">
                        <mxPoint x="390" y="270" as="sourcePoint"/>
                        <mxPoint x="380" y="240" as="targetPoint"/>
                    </mxGeometry>
                </mxCell>
                <mxCell id="Fh2YJnOW9jZOdRSf_4ld-7" value="" style="edgeStyle=none;html=1;strokeColor=#000000;strokeWidth=3;fontFamily=Times New Roman;fontSize=14;fontColor=#000000;" edge="1" parent="1" source="Fh2YJnOW9jZOdRSf_4ld-5" target="Fh2YJnOW9jZOdRSf_4ld-6">
                    <mxGeometry relative="1" as="geometry"/>
                </mxCell>
                <mxCell id="Fh2YJnOW9jZOdRSf_4ld-5" value="&quot;Inserted negative number&quot;" style="shape=parallelogram;perimeter=parallelogramPerimeter;whiteSpace=wrap;html=1;fixedSize=1;strokeColor=#000000;fontFamily=Times New Roman;fontSize=14;fontColor=#000000;fillColor=#FFFFFF;" vertex="1" parent="1">
                    <mxGeometry x="295" y="240" width="170" height="60" as="geometry"/>
                </mxCell>
                <mxCell id="Fh2YJnOW9jZOdRSf_4ld-6" value="abort()" style="ellipse;whiteSpace=wrap;html=1;strokeColor=#000000;fontFamily=Times New Roman;fontSize=14;fontColor=#000000;fillColor=#FFFFFF;" vertex="1" parent="1">
                    <mxGeometry x="320" y="330" width="120" height="80" as="geometry"/>
                </mxCell>
                <mxCell id="Fh2YJnOW9jZOdRSf_4ld-8" value="true" style="text;html=1;align=center;verticalAlign=middle;resizable=0;points=[];autosize=1;strokeColor=none;fillColor=none;fontSize=14;fontFamily=Times New Roman;fontColor=#000000;" vertex="1" parent="1">
                    <mxGeometry x="315" y="195" width="50" height="30" as="geometry"/>
                </mxCell>
                <mxCell id="Fh2YJnOW9jZOdRSf_4ld-9" value="" style="endArrow=none;html=1;strokeColor=#000000;strokeWidth=3;fontFamily=Times New Roman;fontSize=14;fontColor=#000000;entryX=0;entryY=0.5;entryDx=0;entryDy=0;" edge="1" parent="1" target="Fh2YJnOW9jZOdRSf_4ld-2">
                    <mxGeometry width="50" height="50" relative="1" as="geometry">
                        <mxPoint x="220" y="150" as="sourcePoint"/>
                        <mxPoint x="440" y="210" as="targetPoint"/>
                    </mxGeometry>
                </mxCell>
                <mxCell id="Fh2YJnOW9jZOdRSf_4ld-10" value="false" style="text;html=1;align=center;verticalAlign=middle;resizable=0;points=[];autosize=1;strokeColor=none;fillColor=none;fontSize=14;fontFamily=Times New Roman;fontColor=#000000;" vertex="1" parent="1">
                    <mxGeometry x="255" y="115" width="50" height="30" as="geometry"/>
                </mxCell>
                <mxCell id="Fh2YJnOW9jZOdRSf_4ld-11" value="" style="endArrow=classic;html=1;strokeColor=#000000;strokeWidth=3;fontFamily=Times New Roman;fontSize=14;fontColor=#000000;" edge="1" parent="1">
                    <mxGeometry width="50" height="50" relative="1" as="geometry">
                        <mxPoint x="219.5" y="150" as="sourcePoint"/>
                        <mxPoint x="219.5" y="240" as="targetPoint"/>
                    </mxGeometry>
                </mxCell>
                <mxCell id="Fh2YJnOW9jZOdRSf_4ld-12" value="0" style="ellipse;whiteSpace=wrap;html=1;strokeColor=#000000;fontFamily=Times New Roman;fontSize=14;fontColor=#000000;fillColor=#FFFFFF;" vertex="1" parent="1">
                    <mxGeometry x="160" y="240" width="120" height="80" as="geometry"/>
                </mxCell>
            </root>
        </mxGraphModel>
    </diagram>
    <diagram id="IzAPGMU3zZUYGwEFBkTt" name="check_pozitive_float">
        <mxGraphModel dx="832" dy="475" grid="1" gridSize="10" guides="1" tooltips="1" connect="1" arrows="1" fold="1" page="1" pageScale="1" pageWidth="827" pageHeight="1169" background="#ffffff" math="0" shadow="0">
            <root>
                <mxCell id="0"/>
                <mxCell id="1" parent="0"/>
                <mxCell id="IrLudFH-UqK1bpbjfwFt-1" value="" style="edgeStyle=none;html=1;strokeColor=#000000;strokeWidth=3;fontFamily=Times New Roman;fontSize=14;fontColor=#000000;" edge="1" parent="1" source="IrLudFH-UqK1bpbjfwFt-2" target="IrLudFH-UqK1bpbjfwFt-3">
                    <mxGeometry relative="1" as="geometry"/>
                </mxCell>
                <mxCell id="IrLudFH-UqK1bpbjfwFt-2" value="number" style="ellipse;whiteSpace=wrap;html=1;strokeColor=#000000;fontFamily=Times New Roman;fontSize=14;fontColor=#000000;fillColor=#FFFFFF;" vertex="1" parent="1">
                    <mxGeometry x="320" width="120" height="80" as="geometry"/>
                </mxCell>
                <mxCell id="IrLudFH-UqK1bpbjfwFt-3" value="number &amp;lt; DBL_EPSILON" style="rhombus;whiteSpace=wrap;html=1;strokeColor=#000000;fontFamily=Times New Roman;fontSize=14;fontColor=#000000;fillColor=#FFFFFF;" vertex="1" parent="1">
                    <mxGeometry x="300" y="110" width="160" height="80" as="geometry"/>
                </mxCell>
                <mxCell id="IrLudFH-UqK1bpbjfwFt-4" value="" style="endArrow=classic;html=1;strokeColor=#000000;strokeWidth=3;fontFamily=Times New Roman;fontSize=14;fontColor=#000000;exitX=0.5;exitY=1;exitDx=0;exitDy=0;" edge="1" parent="1" source="IrLudFH-UqK1bpbjfwFt-3">
                    <mxGeometry width="50" height="50" relative="1" as="geometry">
                        <mxPoint x="390" y="270" as="sourcePoint"/>
                        <mxPoint x="380" y="240" as="targetPoint"/>
                    </mxGeometry>
                </mxCell>
                <mxCell id="IrLudFH-UqK1bpbjfwFt-5" value="" style="edgeStyle=none;html=1;strokeColor=#000000;strokeWidth=3;fontFamily=Times New Roman;fontSize=14;fontColor=#000000;" edge="1" parent="1" source="IrLudFH-UqK1bpbjfwFt-6" target="IrLudFH-UqK1bpbjfwFt-7">
                    <mxGeometry relative="1" as="geometry"/>
                </mxCell>
                <mxCell id="IrLudFH-UqK1bpbjfwFt-6" value="&quot;Inserted negative number&quot;" style="shape=parallelogram;perimeter=parallelogramPerimeter;whiteSpace=wrap;html=1;fixedSize=1;strokeColor=#000000;fontFamily=Times New Roman;fontSize=14;fontColor=#000000;fillColor=#FFFFFF;" vertex="1" parent="1">
                    <mxGeometry x="295" y="240" width="170" height="60" as="geometry"/>
                </mxCell>
                <mxCell id="IrLudFH-UqK1bpbjfwFt-7" value="abort()" style="ellipse;whiteSpace=wrap;html=1;strokeColor=#000000;fontFamily=Times New Roman;fontSize=14;fontColor=#000000;fillColor=#FFFFFF;" vertex="1" parent="1">
                    <mxGeometry x="320" y="330" width="120" height="80" as="geometry"/>
                </mxCell>
                <mxCell id="IrLudFH-UqK1bpbjfwFt-8" value="true" style="text;html=1;align=center;verticalAlign=middle;resizable=0;points=[];autosize=1;strokeColor=none;fillColor=none;fontSize=14;fontFamily=Times New Roman;fontColor=#000000;" vertex="1" parent="1">
                    <mxGeometry x="315" y="195" width="50" height="30" as="geometry"/>
                </mxCell>
                <mxCell id="IrLudFH-UqK1bpbjfwFt-9" value="" style="endArrow=none;html=1;strokeColor=#000000;strokeWidth=3;fontFamily=Times New Roman;fontSize=14;fontColor=#000000;entryX=0;entryY=0.5;entryDx=0;entryDy=0;" edge="1" parent="1" target="IrLudFH-UqK1bpbjfwFt-3">
                    <mxGeometry width="50" height="50" relative="1" as="geometry">
                        <mxPoint x="220" y="150" as="sourcePoint"/>
                        <mxPoint x="440" y="210" as="targetPoint"/>
                    </mxGeometry>
                </mxCell>
                <mxCell id="IrLudFH-UqK1bpbjfwFt-10" value="false" style="text;html=1;align=center;verticalAlign=middle;resizable=0;points=[];autosize=1;strokeColor=none;fillColor=none;fontSize=14;fontFamily=Times New Roman;fontColor=#000000;" vertex="1" parent="1">
                    <mxGeometry x="255" y="115" width="50" height="30" as="geometry"/>
                </mxCell>
                <mxCell id="IrLudFH-UqK1bpbjfwFt-11" value="" style="endArrow=classic;html=1;strokeColor=#000000;strokeWidth=3;fontFamily=Times New Roman;fontSize=14;fontColor=#000000;" edge="1" parent="1">
                    <mxGeometry width="50" height="50" relative="1" as="geometry">
                        <mxPoint x="219.5" y="150" as="sourcePoint"/>
                        <mxPoint x="219.5" y="240" as="targetPoint"/>
                    </mxGeometry>
                </mxCell>
                <mxCell id="IrLudFH-UqK1bpbjfwFt-12" value="0" style="ellipse;whiteSpace=wrap;html=1;strokeColor=#000000;fontFamily=Times New Roman;fontSize=14;fontColor=#000000;fillColor=#FFFFFF;" vertex="1" parent="1">
                    <mxGeometry x="160" y="240" width="120" height="80" as="geometry"/>
                </mxCell>
            </root>
        </mxGraphModel>
    </diagram>
    <diagram id="kjhc359RD9jr8dm4dUFu" name="sum_of_sequence">
        <mxGraphModel dx="832" dy="475" grid="1" gridSize="10" guides="1" tooltips="1" connect="1" arrows="1" fold="1" page="1" pageScale="1" pageWidth="827" pageHeight="1169" background="#ffffff" math="0" shadow="0">
            <root>
                <mxCell id="0"/>
                <mxCell id="1" parent="0"/>
                <mxCell id="y-CtY0HLlEOeIT3dEcZx-3" value="" style="edgeStyle=none;html=1;strokeColor=#000000;strokeWidth=3;fontFamily=Times New Roman;fontSize=14;fontColor=#000000;" edge="1" parent="1" source="y-CtY0HLlEOeIT3dEcZx-1" target="y-CtY0HLlEOeIT3dEcZx-2">
                    <mxGeometry relative="1" as="geometry"/>
                </mxCell>
                <mxCell id="y-CtY0HLlEOeIT3dEcZx-1" value="k" style="ellipse;whiteSpace=wrap;html=1;strokeColor=#000000;fontFamily=Times New Roman;fontSize=14;fontColor=#000000;fillColor=#FFFFFF;" vertex="1" parent="1">
                    <mxGeometry x="320" width="120" height="80" as="geometry"/>
                </mxCell>
                <mxCell id="y-CtY0HLlEOeIT3dEcZx-5" value="" style="edgeStyle=none;html=1;strokeColor=#000000;strokeWidth=3;fontFamily=Times New Roman;fontSize=14;fontColor=#000000;" edge="1" parent="1" source="y-CtY0HLlEOeIT3dEcZx-2" target="y-CtY0HLlEOeIT3dEcZx-4">
                    <mxGeometry relative="1" as="geometry"/>
                </mxCell>
                <mxCell id="y-CtY0HLlEOeIT3dEcZx-2" value="result = 0" style="shape=process;whiteSpace=wrap;html=1;backgroundOutline=1;strokeColor=#000000;fontFamily=Times New Roman;fontSize=14;fontColor=#000000;fillColor=#FFFFFF;" vertex="1" parent="1">
                    <mxGeometry x="320" y="110" width="120" height="60" as="geometry"/>
                </mxCell>
                <mxCell id="y-CtY0HLlEOeIT3dEcZx-7" value="" style="edgeStyle=none;html=1;strokeColor=#000000;strokeWidth=3;fontFamily=Times New Roman;fontSize=14;fontColor=#000000;" edge="1" parent="1" source="y-CtY0HLlEOeIT3dEcZx-4" target="y-CtY0HLlEOeIT3dEcZx-6">
                    <mxGeometry relative="1" as="geometry"/>
                </mxCell>
                <mxCell id="y-CtY0HLlEOeIT3dEcZx-4" value="last_elem = 1" style="shape=process;whiteSpace=wrap;html=1;backgroundOutline=1;strokeColor=#000000;fontFamily=Times New Roman;fontSize=14;fontColor=#000000;fillColor=#FFFFFF;" vertex="1" parent="1">
                    <mxGeometry x="320" y="200" width="120" height="60" as="geometry"/>
                </mxCell>
                <mxCell id="y-CtY0HLlEOeIT3dEcZx-9" value="" style="edgeStyle=none;html=1;strokeColor=#000000;strokeWidth=3;fontFamily=Times New Roman;fontSize=14;fontColor=#000000;" edge="1" parent="1" source="y-CtY0HLlEOeIT3dEcZx-6" target="y-CtY0HLlEOeIT3dEcZx-8">
                    <mxGeometry relative="1" as="geometry"/>
                </mxCell>
                <mxCell id="y-CtY0HLlEOeIT3dEcZx-6" value="r = 1" style="shape=process;whiteSpace=wrap;html=1;backgroundOutline=1;strokeColor=#000000;fontFamily=Times New Roman;fontSize=14;fontColor=#000000;fillColor=#FFFFFF;" vertex="1" parent="1">
                    <mxGeometry x="320" y="280" width="120" height="60" as="geometry"/>
                </mxCell>
                <mxCell id="y-CtY0HLlEOeIT3dEcZx-8" value="r &amp;lt;= k" style="rhombus;whiteSpace=wrap;html=1;strokeColor=#000000;fontFamily=Times New Roman;fontSize=14;fontColor=#000000;fillColor=#FFFFFF;" vertex="1" parent="1">
                    <mxGeometry x="340" y="370" width="80" height="80" as="geometry"/>
                </mxCell>
                <mxCell id="y-CtY0HLlEOeIT3dEcZx-10" value="" style="endArrow=classic;html=1;strokeColor=#000000;strokeWidth=3;fontFamily=Times New Roman;fontSize=14;fontColor=#000000;exitX=0.5;exitY=1;exitDx=0;exitDy=0;" edge="1" parent="1" source="y-CtY0HLlEOeIT3dEcZx-8">
                    <mxGeometry width="50" height="50" relative="1" as="geometry">
                        <mxPoint x="360" y="420" as="sourcePoint"/>
                        <mxPoint x="380" y="510" as="targetPoint"/>
                    </mxGeometry>
                </mxCell>
                <mxCell id="y-CtY0HLlEOeIT3dEcZx-11" value="true" style="text;html=1;align=center;verticalAlign=middle;resizable=0;points=[];autosize=1;strokeColor=none;fillColor=none;fontSize=14;fontFamily=Times New Roman;fontColor=#000000;" vertex="1" parent="1">
                    <mxGeometry x="320" y="460" width="50" height="30" as="geometry"/>
                </mxCell>
                <mxCell id="y-CtY0HLlEOeIT3dEcZx-14" value="" style="edgeStyle=none;html=1;strokeColor=#000000;strokeWidth=3;fontFamily=Times New Roman;fontSize=14;fontColor=#000000;" edge="1" parent="1" source="y-CtY0HLlEOeIT3dEcZx-12" target="y-CtY0HLlEOeIT3dEcZx-13">
                    <mxGeometry relative="1" as="geometry"/>
                </mxCell>
                <mxCell id="y-CtY0HLlEOeIT3dEcZx-12" value="last_elem *= (pow(r+2, 3) / pow(r+1, 4))" style="shape=process;whiteSpace=wrap;html=1;backgroundOutline=1;strokeColor=#000000;fontFamily=Times New Roman;fontSize=14;fontColor=#000000;fillColor=#FFFFFF;" vertex="1" parent="1">
                    <mxGeometry x="235" y="510" width="290" height="60" as="geometry"/>
                </mxCell>
                <mxCell id="y-CtY0HLlEOeIT3dEcZx-16" value="" style="edgeStyle=none;html=1;strokeColor=#000000;strokeWidth=3;fontFamily=Times New Roman;fontSize=14;fontColor=#000000;" edge="1" parent="1" source="y-CtY0HLlEOeIT3dEcZx-13" target="y-CtY0HLlEOeIT3dEcZx-15">
                    <mxGeometry relative="1" as="geometry"/>
                </mxCell>
                <mxCell id="y-CtY0HLlEOeIT3dEcZx-13" value="result += last_elem" style="shape=process;whiteSpace=wrap;html=1;backgroundOutline=1;strokeColor=#000000;fontFamily=Times New Roman;fontSize=14;fontColor=#000000;fillColor=#FFFFFF;" vertex="1" parent="1">
                    <mxGeometry x="280" y="600" width="200" height="60" as="geometry"/>
                </mxCell>
                <mxCell id="y-CtY0HLlEOeIT3dEcZx-15" value="r++" style="shape=process;whiteSpace=wrap;html=1;backgroundOutline=1;strokeColor=#000000;fontFamily=Times New Roman;fontSize=14;fontColor=#000000;fillColor=#FFFFFF;" vertex="1" parent="1">
                    <mxGeometry x="320" y="690" width="120" height="60" as="geometry"/>
                </mxCell>
                <mxCell id="y-CtY0HLlEOeIT3dEcZx-17" value="" style="endArrow=none;html=1;strokeColor=#000000;strokeWidth=3;fontFamily=Times New Roman;fontSize=14;fontColor=#000000;entryX=0.5;entryY=1;entryDx=0;entryDy=0;" edge="1" parent="1" target="y-CtY0HLlEOeIT3dEcZx-15">
                    <mxGeometry width="50" height="50" relative="1" as="geometry">
                        <mxPoint x="380" y="790" as="sourcePoint"/>
                        <mxPoint x="370" y="590" as="targetPoint"/>
                    </mxGeometry>
                </mxCell>
                <mxCell id="y-CtY0HLlEOeIT3dEcZx-18" value="" style="endArrow=none;html=1;strokeColor=#000000;strokeWidth=3;fontFamily=Times New Roman;fontSize=14;fontColor=#000000;" edge="1" parent="1">
                    <mxGeometry width="50" height="50" relative="1" as="geometry">
                        <mxPoint x="380" y="790" as="sourcePoint"/>
                        <mxPoint x="620" y="790" as="targetPoint"/>
                    </mxGeometry>
                </mxCell>
                <mxCell id="y-CtY0HLlEOeIT3dEcZx-19" value="" style="endArrow=none;html=1;strokeColor=#000000;strokeWidth=3;fontFamily=Times New Roman;fontSize=14;fontColor=#000000;" edge="1" parent="1">
                    <mxGeometry width="50" height="50" relative="1" as="geometry">
                        <mxPoint x="620" y="790" as="sourcePoint"/>
                        <mxPoint x="620" y="410" as="targetPoint"/>
                    </mxGeometry>
                </mxCell>
                <mxCell id="y-CtY0HLlEOeIT3dEcZx-20" value="" style="endArrow=classic;html=1;strokeColor=#000000;strokeWidth=3;fontFamily=Times New Roman;fontSize=14;fontColor=#000000;entryX=1;entryY=0.5;entryDx=0;entryDy=0;" edge="1" parent="1" target="y-CtY0HLlEOeIT3dEcZx-8">
                    <mxGeometry width="50" height="50" relative="1" as="geometry">
                        <mxPoint x="620" y="410" as="sourcePoint"/>
                        <mxPoint x="370" y="590" as="targetPoint"/>
                    </mxGeometry>
                </mxCell>
                <mxCell id="y-CtY0HLlEOeIT3dEcZx-21" value="" style="endArrow=none;html=1;strokeColor=#000000;strokeWidth=3;fontFamily=Times New Roman;fontSize=14;fontColor=#000000;entryX=0;entryY=0.5;entryDx=0;entryDy=0;" edge="1" parent="1" target="y-CtY0HLlEOeIT3dEcZx-8">
                    <mxGeometry width="50" height="50" relative="1" as="geometry">
                        <mxPoint x="170" y="410" as="sourcePoint"/>
                        <mxPoint x="280" y="500" as="targetPoint"/>
                    </mxGeometry>
                </mxCell>
                <mxCell id="y-CtY0HLlEOeIT3dEcZx-22" value="false" style="text;html=1;align=center;verticalAlign=middle;resizable=0;points=[];autosize=1;strokeColor=none;fillColor=none;fontSize=14;fontFamily=Times New Roman;fontColor=#000000;" vertex="1" parent="1">
                    <mxGeometry x="205" y="375" width="50" height="30" as="geometry"/>
                </mxCell>
                <mxCell id="y-CtY0HLlEOeIT3dEcZx-23" value="" style="endArrow=classic;html=1;strokeColor=#000000;strokeWidth=3;fontFamily=Times New Roman;fontSize=14;fontColor=#000000;" edge="1" parent="1">
                    <mxGeometry width="50" height="50" relative="1" as="geometry">
                        <mxPoint x="170" y="410" as="sourcePoint"/>
                        <mxPoint x="170" y="510" as="targetPoint"/>
                    </mxGeometry>
                </mxCell>
                <mxCell id="y-CtY0HLlEOeIT3dEcZx-24" value="result" style="ellipse;whiteSpace=wrap;html=1;strokeColor=#000000;fontFamily=Times New Roman;fontSize=14;fontColor=#000000;fillColor=#FFFFFF;" vertex="1" parent="1">
                    <mxGeometry x="110" y="510" width="120" height="80" as="geometry"/>
                </mxCell>
            </root>
        </mxGraphModel>
    </diagram>
    <diagram id="CI638ye40ao-Ns9Q4l8I" name="virified_sum_of_series">
        <mxGraphModel dx="832" dy="475" grid="1" gridSize="10" guides="1" tooltips="1" connect="1" arrows="1" fold="1" page="1" pageScale="1" pageWidth="827" pageHeight="1169" background="#ffffff" math="0" shadow="0">
            <root>
                <mxCell id="0"/>
                <mxCell id="1" parent="0"/>
                <mxCell id="cqMuCNWf79msnLqt0UnT-1" value="" style="edgeStyle=none;html=1;strokeColor=#000000;strokeWidth=3;fontFamily=Times New Roman;fontSize=14;fontColor=#000000;" edge="1" parent="1" source="cqMuCNWf79msnLqt0UnT-2" target="cqMuCNWf79msnLqt0UnT-4">
                    <mxGeometry relative="1" as="geometry"/>
                </mxCell>
                <mxCell id="cqMuCNWf79msnLqt0UnT-2" value="e" style="ellipse;whiteSpace=wrap;html=1;strokeColor=#000000;fontFamily=Times New Roman;fontSize=14;fontColor=#000000;fillColor=#FFFFFF;" vertex="1" parent="1">
                    <mxGeometry x="320" width="120" height="80" as="geometry"/>
                </mxCell>
                <mxCell id="cqMuCNWf79msnLqt0UnT-3" value="" style="edgeStyle=none;html=1;strokeColor=#000000;strokeWidth=3;fontFamily=Times New Roman;fontSize=14;fontColor=#000000;" edge="1" parent="1" source="cqMuCNWf79msnLqt0UnT-4" target="cqMuCNWf79msnLqt0UnT-6">
                    <mxGeometry relative="1" as="geometry"/>
                </mxCell>
                <mxCell id="cqMuCNWf79msnLqt0UnT-4" value="result = 0" style="shape=process;whiteSpace=wrap;html=1;backgroundOutline=1;strokeColor=#000000;fontFamily=Times New Roman;fontSize=14;fontColor=#000000;fillColor=#FFFFFF;" vertex="1" parent="1">
                    <mxGeometry x="320" y="110" width="120" height="60" as="geometry"/>
                </mxCell>
                <mxCell id="cqMuCNWf79msnLqt0UnT-5" value="" style="edgeStyle=none;html=1;strokeColor=#000000;strokeWidth=3;fontFamily=Times New Roman;fontSize=14;fontColor=#000000;" edge="1" parent="1" source="cqMuCNWf79msnLqt0UnT-6" target="cqMuCNWf79msnLqt0UnT-8">
                    <mxGeometry relative="1" as="geometry"/>
                </mxCell>
                <mxCell id="cqMuCNWf79msnLqt0UnT-6" value="last_elem = 1" style="shape=process;whiteSpace=wrap;html=1;backgroundOutline=1;strokeColor=#000000;fontFamily=Times New Roman;fontSize=14;fontColor=#000000;fillColor=#FFFFFF;" vertex="1" parent="1">
                    <mxGeometry x="320" y="200" width="120" height="60" as="geometry"/>
                </mxCell>
                <mxCell id="cqMuCNWf79msnLqt0UnT-7" value="" style="edgeStyle=none;html=1;strokeColor=#000000;strokeWidth=3;fontFamily=Times New Roman;fontSize=14;fontColor=#000000;" edge="1" parent="1" source="cqMuCNWf79msnLqt0UnT-8">
                    <mxGeometry relative="1" as="geometry">
                        <mxPoint x="380" y="370" as="targetPoint"/>
                    </mxGeometry>
                </mxCell>
                <mxCell id="cqMuCNWf79msnLqt0UnT-8" value="r = 1" style="shape=process;whiteSpace=wrap;html=1;backgroundOutline=1;strokeColor=#000000;fontFamily=Times New Roman;fontSize=14;fontColor=#000000;fillColor=#FFFFFF;" vertex="1" parent="1">
                    <mxGeometry x="320" y="280" width="120" height="60" as="geometry"/>
                </mxCell>
                <mxCell id="cqMuCNWf79msnLqt0UnT-9" value="fabs(last_elem) - e &amp;gt; -DBL_EPSILON" style="rhombus;whiteSpace=wrap;html=1;strokeColor=#000000;fontFamily=Times New Roman;fontSize=14;fontColor=#000000;fillColor=#FFFFFF;" vertex="1" parent="1">
                    <mxGeometry x="250" y="370" width="260" height="80" as="geometry"/>
                </mxCell>
                <mxCell id="6HvQarUC0aIrNavz7uin-1" value="" style="endArrow=classic;html=1;strokeColor=#000000;strokeWidth=3;fontFamily=Times New Roman;fontSize=14;fontColor=#000000;exitX=0.5;exitY=1;exitDx=0;exitDy=0;" edge="1" parent="1" source="cqMuCNWf79msnLqt0UnT-9">
                    <mxGeometry width="50" height="50" relative="1" as="geometry">
                        <mxPoint x="370" y="440" as="sourcePoint"/>
                        <mxPoint x="380" y="530" as="targetPoint"/>
                    </mxGeometry>
                </mxCell>
                <mxCell id="zwMwmUI80DIP6etpoH-a-2" value="" style="edgeStyle=none;html=1;strokeColor=#000000;strokeWidth=3;fontFamily=Times New Roman;fontSize=14;fontColor=#000000;" edge="1" parent="1" source="6HvQarUC0aIrNavz7uin-2" target="zwMwmUI80DIP6etpoH-a-1">
                    <mxGeometry relative="1" as="geometry"/>
                </mxCell>
                <mxCell id="6HvQarUC0aIrNavz7uin-2" value="r++" style="shape=process;whiteSpace=wrap;html=1;backgroundOutline=1;strokeColor=#000000;fontFamily=Times New Roman;fontSize=14;fontColor=#000000;fillColor=#FFFFFF;" vertex="1" parent="1">
                    <mxGeometry x="320" y="530" width="120" height="60" as="geometry"/>
                </mxCell>
                <mxCell id="6HvQarUC0aIrNavz7uin-3" value="true" style="text;html=1;align=center;verticalAlign=middle;resizable=0;points=[];autosize=1;strokeColor=none;fillColor=none;fontSize=14;fontFamily=Times New Roman;fontColor=#000000;" vertex="1" parent="1">
                    <mxGeometry x="315" y="475" width="50" height="30" as="geometry"/>
                </mxCell>
                <mxCell id="qIGDjQIJ3JmEjzqSIhBf-2" value="" style="edgeStyle=none;html=1;strokeColor=#000000;strokeWidth=3;fontFamily=Times New Roman;fontSize=14;fontColor=#000000;" edge="1" parent="1" source="zwMwmUI80DIP6etpoH-a-1" target="qIGDjQIJ3JmEjzqSIhBf-1">
                    <mxGeometry relative="1" as="geometry"/>
                </mxCell>
                <mxCell id="zwMwmUI80DIP6etpoH-a-1" value="last_elem *= (pow(r+2, 3) / pow(r+1, 4))" style="shape=process;whiteSpace=wrap;html=1;backgroundOutline=1;strokeColor=#000000;fontFamily=Times New Roman;fontSize=14;fontColor=#000000;fillColor=#FFFFFF;" vertex="1" parent="1">
                    <mxGeometry x="235" y="620" width="290" height="60" as="geometry"/>
                </mxCell>
                <mxCell id="qIGDjQIJ3JmEjzqSIhBf-1" value="result += last_elem" style="shape=process;whiteSpace=wrap;html=1;backgroundOutline=1;strokeColor=#000000;fontFamily=Times New Roman;fontSize=14;fontColor=#000000;fillColor=#FFFFFF;" vertex="1" parent="1">
                    <mxGeometry x="280" y="710" width="200" height="60" as="geometry"/>
                </mxCell>
                <mxCell id="qIGDjQIJ3JmEjzqSIhBf-3" value="" style="endArrow=none;html=1;strokeColor=#000000;strokeWidth=3;fontFamily=Times New Roman;fontSize=14;fontColor=#000000;exitX=0.5;exitY=1;exitDx=0;exitDy=0;" edge="1" parent="1" source="qIGDjQIJ3JmEjzqSIhBf-1">
                    <mxGeometry width="50" height="50" relative="1" as="geometry">
                        <mxPoint x="370" y="620" as="sourcePoint"/>
                        <mxPoint x="380" y="810" as="targetPoint"/>
                    </mxGeometry>
                </mxCell>
                <mxCell id="qIGDjQIJ3JmEjzqSIhBf-4" value="" style="endArrow=none;html=1;strokeColor=#000000;strokeWidth=3;fontFamily=Times New Roman;fontSize=14;fontColor=#000000;" edge="1" parent="1">
                    <mxGeometry width="50" height="50" relative="1" as="geometry">
                        <mxPoint x="380" y="810" as="sourcePoint"/>
                        <mxPoint x="610" y="810" as="targetPoint"/>
                    </mxGeometry>
                </mxCell>
                <mxCell id="qIGDjQIJ3JmEjzqSIhBf-5" value="" style="endArrow=none;html=1;strokeColor=#000000;strokeWidth=3;fontFamily=Times New Roman;fontSize=14;fontColor=#000000;" edge="1" parent="1">
                    <mxGeometry width="50" height="50" relative="1" as="geometry">
                        <mxPoint x="610" y="810" as="sourcePoint"/>
                        <mxPoint x="610" y="410" as="targetPoint"/>
                    </mxGeometry>
                </mxCell>
                <mxCell id="qIGDjQIJ3JmEjzqSIhBf-6" value="" style="endArrow=classic;html=1;strokeColor=#000000;strokeWidth=3;fontFamily=Times New Roman;fontSize=14;fontColor=#000000;entryX=1;entryY=0.5;entryDx=0;entryDy=0;" edge="1" parent="1" target="cqMuCNWf79msnLqt0UnT-9">
                    <mxGeometry width="50" height="50" relative="1" as="geometry">
                        <mxPoint x="610" y="410" as="sourcePoint"/>
                        <mxPoint x="420" y="570" as="targetPoint"/>
                    </mxGeometry>
                </mxCell>
                <mxCell id="qIGDjQIJ3JmEjzqSIhBf-7" value="" style="endArrow=none;html=1;strokeColor=#000000;strokeWidth=3;fontFamily=Times New Roman;fontSize=14;fontColor=#000000;entryX=0;entryY=0.5;entryDx=0;entryDy=0;" edge="1" parent="1" target="cqMuCNWf79msnLqt0UnT-9">
                    <mxGeometry width="50" height="50" relative="1" as="geometry">
                        <mxPoint x="130" y="410" as="sourcePoint"/>
                        <mxPoint x="300" y="510" as="targetPoint"/>
                    </mxGeometry>
                </mxCell>
                <mxCell id="qIGDjQIJ3JmEjzqSIhBf-8" value="" style="endArrow=classic;html=1;strokeColor=#000000;strokeWidth=3;fontFamily=Times New Roman;fontSize=14;fontColor=#000000;" edge="1" parent="1">
                    <mxGeometry width="50" height="50" relative="1" as="geometry">
                        <mxPoint x="130" y="410" as="sourcePoint"/>
                        <mxPoint x="130" y="520" as="targetPoint"/>
                    </mxGeometry>
                </mxCell>
                <mxCell id="qIGDjQIJ3JmEjzqSIhBf-10" value="result" style="ellipse;whiteSpace=wrap;html=1;strokeColor=#000000;fontFamily=Times New Roman;fontSize=14;fontColor=#000000;fillColor=#FFFFFF;" vertex="1" parent="1">
                    <mxGeometry x="70" y="520" width="120" height="80" as="geometry"/>
                </mxCell>
                <mxCell id="qIGDjQIJ3JmEjzqSIhBf-11" value="false" style="text;html=1;align=center;verticalAlign=middle;resizable=0;points=[];autosize=1;strokeColor=none;fillColor=none;fontSize=14;fontFamily=Times New Roman;fontColor=#000000;" vertex="1" parent="1">
                    <mxGeometry x="160" y="380" width="50" height="30" as="geometry"/>
                </mxCell>
            </root>
        </mxGraphModel>
    </diagram>
</mxfile>